<svg xmlns="http://www.w3.org/2000/svg" xmlns:xlink="http://www.w3.org/1999/xlink" width="500" zoomAndPan="magnify" viewBox="0 0 375 374.999991" height="500" preserveAspectRatio="xMidYMid meet" version="1.0"><path fill="#5e17eb" d="M 40.035156 162.101562 L 104.53125 97.609375 C 105.363281 96.777344 106.230469 95.988281 107.140625 95.242188 C 108.046875 94.5 108.988281 93.800781 109.964844 93.148438 C 110.941406 92.496094 111.949219 91.890625 112.984375 91.339844 C 114.019531 90.785156 115.082031 90.28125 116.167969 89.832031 C 117.253906 89.382812 118.355469 88.988281 119.480469 88.648438 C 120.605469 88.304688 121.742188 88.019531 122.894531 87.792969 C 124.046875 87.5625 125.207031 87.390625 126.375 87.277344 C 127.546875 87.160156 128.71875 87.101562 129.890625 87.101562 C 131.066406 87.101562 132.238281 87.160156 133.40625 87.277344 C 134.578125 87.390625 135.738281 87.5625 136.890625 87.792969 C 138.039062 88.019531 139.179688 88.304688 140.304688 88.648438 C 141.425781 88.988281 142.53125 89.382812 143.617188 89.832031 C 144.703125 90.28125 145.761719 90.785156 146.796875 91.339844 C 147.835938 91.890625 148.839844 92.496094 149.816406 93.148438 C 150.792969 93.800781 151.738281 94.5 152.644531 95.242188 C 153.550781 95.988281 154.421875 96.777344 155.253906 97.609375 L 219.746094 162.101562 C 220.578125 162.933594 221.367188 163.804688 222.109375 164.710938 C 222.855469 165.617188 223.554688 166.5625 224.207031 167.539062 C 224.859375 168.515625 225.464844 169.519531 226.015625 170.558594 C 226.570312 171.59375 227.074219 172.652344 227.523438 173.738281 C 227.972656 174.824219 228.367188 175.929688 228.707031 177.050781 C 229.050781 178.175781 229.335938 179.316406 229.5625 180.464844 C 229.792969 181.617188 229.964844 182.777344 230.078125 183.949219 C 230.195312 185.117188 230.253906 186.289062 230.253906 187.464844 C 230.253906 188.636719 230.195312 189.808594 230.078125 190.980469 C 229.964844 192.148438 229.792969 193.308594 229.5625 194.460938 C 229.335938 195.613281 229.050781 196.75 228.707031 197.875 C 228.367188 199 227.972656 200.101562 227.523438 201.1875 C 227.074219 202.273438 226.570312 203.335938 226.015625 204.371094 C 225.464844 205.40625 224.859375 206.414062 224.207031 207.390625 C 223.554688 208.367188 222.855469 209.308594 222.109375 210.214844 C 221.367188 211.125 220.578125 211.992188 219.746094 212.824219 L 155.253906 277.320312 C 154.421875 278.148438 153.550781 278.9375 152.644531 279.683594 C 151.738281 280.429688 150.792969 281.128906 149.816406 281.78125 C 148.839844 282.433594 147.835938 283.035156 146.796875 283.589844 C 145.761719 284.144531 144.703125 284.644531 143.617188 285.09375 C 142.53125 285.542969 141.425781 285.9375 140.304688 286.28125 C 139.179688 286.621094 138.039062 286.90625 136.890625 287.132812 C 135.738281 287.363281 134.578125 287.535156 133.40625 287.652344 C 132.238281 287.765625 131.066406 287.824219 129.890625 287.824219 C 128.71875 287.824219 127.546875 287.765625 126.375 287.652344 C 125.207031 287.535156 124.046875 287.363281 122.894531 287.132812 C 121.742188 286.90625 120.605469 286.621094 119.480469 286.28125 C 118.355469 285.9375 117.253906 285.542969 116.167969 285.09375 C 115.082031 284.644531 114.019531 284.144531 112.984375 283.589844 C 111.949219 283.035156 110.941406 282.433594 109.964844 281.78125 C 108.988281 281.125 108.046875 280.429688 107.140625 279.683594 C 106.230469 278.9375 105.363281 278.148438 104.53125 277.320312 L 40.035156 212.824219 C 39.207031 211.992188 38.417969 211.125 37.671875 210.214844 C 36.925781 209.308594 36.226562 208.367188 35.574219 207.390625 C 34.921875 206.414062 34.320312 205.40625 33.765625 204.371094 C 33.210938 203.335938 32.710938 202.273438 32.261719 201.1875 C 31.8125 200.101562 31.417969 199 31.074219 197.875 C 30.734375 196.75 30.449219 195.613281 30.21875 194.460938 C 29.992188 193.308594 29.820312 192.148438 29.703125 190.980469 C 29.589844 189.808594 29.53125 188.636719 29.53125 187.464844 C 29.53125 186.289062 29.589844 185.117188 29.703125 183.949219 C 29.820312 182.777344 29.992188 181.617188 30.21875 180.464844 C 30.449219 179.316406 30.734375 178.175781 31.074219 177.050781 C 31.417969 175.929688 31.8125 174.824219 32.261719 173.738281 C 32.710938 172.652344 33.210938 171.59375 33.765625 170.558594 C 34.320312 169.519531 34.921875 168.515625 35.574219 167.539062 C 36.226562 166.5625 36.925781 165.617188 37.671875 164.710938 C 38.417969 163.804688 39.207031 162.933594 40.035156 162.101562 Z M 40.035156 162.101562 " fill-opacity="1" fill-rule="nonzero"/><path fill="#6ecfe1" d="M 155.253906 162.105469 L 219.75 97.609375 C 220.578125 96.78125 221.449219 95.992188 222.355469 95.246094 C 223.265625 94.503906 224.207031 93.804688 225.183594 93.152344 C 226.160156 92.5 227.167969 91.894531 228.203125 91.339844 C 229.238281 90.789062 230.300781 90.285156 231.382812 89.835938 C 232.46875 89.386719 233.574219 88.992188 234.699219 88.652344 C 235.824219 88.308594 236.960938 88.023438 238.113281 87.796875 C 239.265625 87.566406 240.425781 87.394531 241.59375 87.28125 C 242.761719 87.164062 243.933594 87.105469 245.109375 87.105469 C 246.285156 87.105469 247.457031 87.164062 248.625 87.28125 C 249.792969 87.394531 250.953125 87.566406 252.105469 87.796875 C 253.257812 88.023438 254.398438 88.308594 255.519531 88.652344 C 256.644531 88.992188 257.75 89.386719 258.835938 89.835938 C 259.917969 90.285156 260.980469 90.789062 262.015625 91.339844 C 263.050781 91.894531 264.058594 92.5 265.035156 93.152344 C 266.011719 93.804688 266.953125 94.503906 267.863281 95.246094 C 268.769531 95.992188 269.640625 96.78125 270.46875 97.609375 L 334.964844 162.105469 C 335.796875 162.9375 336.582031 163.804688 337.328125 164.714844 C 338.074219 165.621094 338.773438 166.566406 339.425781 167.542969 C 340.078125 168.519531 340.679688 169.523438 341.234375 170.558594 C 341.789062 171.597656 342.289062 172.65625 342.738281 173.742188 C 343.191406 174.828125 343.585938 175.933594 343.925781 177.054688 C 344.265625 178.179688 344.550781 179.316406 344.78125 180.46875 C 345.011719 181.621094 345.183594 182.78125 345.296875 183.953125 C 345.414062 185.121094 345.46875 186.292969 345.46875 187.46875 C 345.46875 188.640625 345.414062 189.8125 345.296875 190.984375 C 345.183594 192.152344 345.011719 193.3125 344.78125 194.464844 C 344.550781 195.617188 344.265625 196.753906 343.925781 197.878906 C 343.585938 199.003906 343.1875 200.105469 342.738281 201.191406 C 342.289062 202.277344 341.789062 203.335938 341.234375 204.375 C 340.679688 205.410156 340.078125 206.414062 339.425781 207.394531 C 338.773438 208.371094 338.074219 209.3125 337.328125 210.21875 C 336.582031 211.128906 335.796875 211.996094 334.964844 212.828125 L 270.46875 277.324219 C 269.640625 278.152344 268.769531 278.941406 267.863281 279.6875 C 266.953125 280.433594 266.011719 281.128906 265.035156 281.785156 C 264.058594 282.4375 263.050781 283.039062 262.015625 283.59375 C 260.980469 284.144531 259.917969 284.648438 258.835938 285.097656 C 257.75 285.546875 256.644531 285.941406 255.519531 286.28125 C 254.398438 286.625 253.257812 286.910156 252.105469 287.136719 C 250.953125 287.367188 249.792969 287.539062 248.625 287.65625 C 247.457031 287.769531 246.285156 287.828125 245.109375 287.828125 C 243.933594 287.828125 242.761719 287.769531 241.59375 287.65625 C 240.425781 287.539062 239.265625 287.367188 238.113281 287.136719 C 236.960938 286.910156 235.824219 286.625 234.699219 286.285156 C 233.574219 285.941406 232.46875 285.546875 231.382812 285.097656 C 230.300781 284.648438 229.238281 284.144531 228.203125 283.59375 C 227.167969 283.039062 226.160156 282.4375 225.183594 281.785156 C 224.207031 281.128906 223.265625 280.433594 222.355469 279.6875 C 221.449219 278.941406 220.578125 278.152344 219.75 277.324219 L 155.253906 212.828125 C 154.421875 211.996094 153.636719 211.128906 152.890625 210.21875 C 152.144531 209.3125 151.445312 208.371094 150.792969 207.394531 C 150.140625 206.414062 149.539062 205.410156 148.984375 204.375 C 148.429688 203.335938 147.929688 202.277344 147.480469 201.191406 C 147.03125 200.105469 146.632812 199.003906 146.292969 197.878906 C 145.953125 196.753906 145.667969 195.617188 145.4375 194.464844 C 145.210938 193.3125 145.035156 192.152344 144.921875 190.984375 C 144.808594 189.8125 144.75 188.640625 144.75 187.46875 C 144.75 186.292969 144.808594 185.121094 144.921875 183.953125 C 145.035156 182.78125 145.210938 181.621094 145.4375 180.46875 C 145.667969 179.316406 145.953125 178.179688 146.292969 177.054688 C 146.632812 175.933594 147.03125 174.828125 147.480469 173.742188 C 147.929688 172.65625 148.429688 171.597656 148.984375 170.558594 C 149.539062 169.523438 150.140625 168.519531 150.792969 167.542969 C 151.445312 166.566406 152.144531 165.621094 152.890625 164.714844 C 153.636719 163.808594 154.421875 162.9375 155.253906 162.105469 Z M 155.253906 162.105469 " fill-opacity="1" fill-rule="nonzero"/><path fill="#8c52ff" d="M 187.496094 129.859375 L 155.273438 162.082031 C 154.441406 162.914062 153.652344 163.78125 152.910156 164.691406 C 152.164062 165.597656 151.464844 166.539062 150.8125 167.515625 C 150.160156 168.492188 149.558594 169.5 149.003906 170.535156 C 148.449219 171.570312 147.949219 172.632812 147.5 173.71875 C 147.050781 174.800781 146.65625 175.90625 146.316406 177.03125 C 145.972656 178.15625 145.6875 179.292969 145.460938 180.445312 C 145.230469 181.597656 145.058594 182.757812 144.941406 183.925781 C 144.828125 185.09375 144.769531 186.265625 144.769531 187.441406 C 144.769531 188.613281 144.828125 189.785156 144.941406 190.953125 C 145.058594 192.125 145.230469 193.285156 145.460938 194.4375 C 145.6875 195.585938 145.972656 196.726562 146.316406 197.847656 C 146.65625 198.972656 147.050781 200.078125 147.5 201.164062 C 147.949219 202.246094 148.449219 203.308594 149.003906 204.34375 C 149.558594 205.378906 150.160156 206.386719 150.8125 207.363281 C 151.464844 208.339844 152.164062 209.28125 152.910156 210.1875 C 153.652344 211.097656 154.441406 211.964844 155.273438 212.796875 L 187.496094 245.023438 L 219.722656 212.796875 C 220.554688 211.964844 221.339844 211.097656 222.085938 210.1875 C 222.832031 209.28125 223.527344 208.339844 224.179688 207.363281 C 224.832031 206.386719 225.4375 205.378906 225.992188 204.34375 C 226.542969 203.308594 227.046875 202.246094 227.496094 201.164062 C 227.945312 200.078125 228.339844 198.972656 228.679688 197.847656 C 229.019531 196.726562 229.304688 195.585938 229.535156 194.4375 C 229.765625 193.285156 229.9375 192.125 230.050781 190.953125 C 230.167969 189.785156 230.222656 188.613281 230.222656 187.441406 C 230.222656 186.265625 230.167969 185.09375 230.050781 183.925781 C 229.9375 182.757812 229.765625 181.597656 229.535156 180.445312 C 229.304688 179.292969 229.019531 178.15625 228.679688 177.03125 C 228.339844 175.90625 227.945312 174.800781 227.496094 173.71875 C 227.046875 172.632812 226.542969 171.570312 225.992188 170.535156 C 225.4375 169.5 224.832031 168.492188 224.179688 167.515625 C 223.527344 166.539062 222.832031 165.597656 222.085938 164.691406 C 221.339844 163.78125 220.554688 162.914062 219.722656 162.082031 Z M 187.496094 129.859375 " fill-opacity="1" fill-rule="nonzero"/></svg>