<?xml version="1.0" encoding="utf-8"?>
<!DOCTYPE svg PUBLIC "-//W3C//DTD SVG 1.1//EN" "http://www.w3.org/Graphics/SVG/1.1/DTD/svg11.dtd">
<svg version="1.1" id="Layer_1" xmlns="http://www.w3.org/2000/svg" xmlns:xlink="http://www.w3.org/1999/xlink" x="0px" y="0px"
width="2277px" height="2277px" viewBox="0 0 2277 2277" enable-background="new 0 0 2277 2277" xml:space="preserve">
<rect x="0" y="0" width="2277" height="2277" fill="rgb(255,255,255)" /><g transform="translate(138,138)"><g transform="translate(552,0) scale(0.69,0.69)"><g transform="" style="fill: rgb(0, 0, 0);">
<rect width="100" height="100"/>
</g></g><g transform="translate(690,0) scale(0.69,0.69)"><g transform="" style="fill: rgb(0, 0, 0);">
<rect width="100" height="100"/>
</g></g><g transform="translate(759,0) scale(0.69,0.69)"><g transform="" style="fill: rgb(0, 0, 0);">
<rect width="100" height="100"/>
</g></g><g transform="translate(828,0) scale(0.69,0.69)"><g transform="" style="fill: rgb(0, 0, 0);">
<rect width="100" height="100"/>
</g></g><g transform="translate(897,0) scale(0.69,0.69)"><g transform="" style="fill: rgb(0, 0, 0);">
<rect width="100" height="100"/>
</g></g><g transform="translate(966,0) scale(0.69,0.69)"><g transform="" style="fill: rgb(0, 0, 0);">
<rect width="100" height="100"/>
</g></g><g transform="translate(1035,0) scale(0.69,0.69)"><g transform="" style="fill: rgb(0, 0, 0);">
<rect width="100" height="100"/>
</g></g><g transform="translate(1242,0) scale(0.69,0.69)"><g transform="" style="fill: rgb(0, 0, 0);">
<rect width="100" height="100"/>
</g></g><g transform="translate(1311,0) scale(0.69,0.69)"><g transform="" style="fill: rgb(0, 0, 0);">
<rect width="100" height="100"/>
</g></g><g transform="translate(1380,0) scale(0.69,0.69)"><g transform="" style="fill: rgb(0, 0, 0);">
<rect width="100" height="100"/>
</g></g><g transform="translate(552,69) scale(0.69,0.69)"><g transform="" style="fill: rgb(0, 0, 0);">
<rect width="100" height="100"/>
</g></g><g transform="translate(690,69) scale(0.69,0.69)"><g transform="" style="fill: rgb(0, 0, 0);">
<rect width="100" height="100"/>
</g></g><g transform="translate(759,69) scale(0.69,0.69)"><g transform="" style="fill: rgb(0, 0, 0);">
<rect width="100" height="100"/>
</g></g><g transform="translate(828,69) scale(0.69,0.69)"><g transform="" style="fill: rgb(0, 0, 0);">
<rect width="100" height="100"/>
</g></g><g transform="translate(897,69) scale(0.69,0.69)"><g transform="" style="fill: rgb(0, 0, 0);">
<rect width="100" height="100"/>
</g></g><g transform="translate(1104,69) scale(0.69,0.69)"><g transform="" style="fill: rgb(0, 0, 0);">
<rect width="100" height="100"/>
</g></g><g transform="translate(1173,69) scale(0.69,0.69)"><g transform="" style="fill: rgb(0, 0, 0);">
<rect width="100" height="100"/>
</g></g><g transform="translate(1242,69) scale(0.69,0.69)"><g transform="" style="fill: rgb(0, 0, 0);">
<rect width="100" height="100"/>
</g></g><g transform="translate(690,138) scale(0.69,0.69)"><g transform="" style="fill: rgb(0, 0, 0);">
<rect width="100" height="100"/>
</g></g><g transform="translate(828,138) scale(0.69,0.69)"><g transform="" style="fill: rgb(0, 0, 0);">
<rect width="100" height="100"/>
</g></g><g transform="translate(1104,138) scale(0.69,0.69)"><g transform="" style="fill: rgb(0, 0, 0);">
<rect width="100" height="100"/>
</g></g><g transform="translate(1242,138) scale(0.69,0.69)"><g transform="" style="fill: rgb(0, 0, 0);">
<rect width="100" height="100"/>
</g></g><g transform="translate(552,207) scale(0.69,0.69)"><g transform="" style="fill: rgb(0, 0, 0);">
<rect width="100" height="100"/>
</g></g><g transform="translate(621,207) scale(0.69,0.69)"><g transform="" style="fill: rgb(0, 0, 0);">
<rect width="100" height="100"/>
</g></g><g transform="translate(759,207) scale(0.69,0.69)"><g transform="" style="fill: rgb(0, 0, 0);">
<rect width="100" height="100"/>
</g></g><g transform="translate(828,207) scale(0.69,0.69)"><g transform="" style="fill: rgb(0, 0, 0);">
<rect width="100" height="100"/>
</g></g><g transform="translate(966,207) scale(0.69,0.69)"><g transform="" style="fill: rgb(0, 0, 0);">
<rect width="100" height="100"/>
</g></g><g transform="translate(1035,207) scale(0.69,0.69)"><g transform="" style="fill: rgb(0, 0, 0);">
<rect width="100" height="100"/>
</g></g><g transform="translate(1173,207) scale(0.69,0.69)"><g transform="" style="fill: rgb(0, 0, 0);">
<rect width="100" height="100"/>
</g></g><g transform="translate(690,276) scale(0.69,0.69)"><g transform="" style="fill: rgb(0, 0, 0);">
<rect width="100" height="100"/>
</g></g><g transform="translate(759,276) scale(0.69,0.69)"><g transform="" style="fill: rgb(0, 0, 0);">
<rect width="100" height="100"/>
</g></g><g transform="translate(828,276) scale(0.69,0.69)"><g transform="" style="fill: rgb(0, 0, 0);">
<rect width="100" height="100"/>
</g></g><g transform="translate(966,276) scale(0.69,0.69)"><g transform="" style="fill: rgb(0, 0, 0);">
<rect width="100" height="100"/>
</g></g><g transform="translate(1104,276) scale(0.69,0.69)"><g transform="" style="fill: rgb(0, 0, 0);">
<rect width="100" height="100"/>
</g></g><g transform="translate(1311,276) scale(0.69,0.69)"><g transform="" style="fill: rgb(0, 0, 0);">
<rect width="100" height="100"/>
</g></g><g transform="translate(621,345) scale(0.69,0.69)"><g transform="" style="fill: rgb(0, 0, 0);">
<rect width="100" height="100"/>
</g></g><g transform="translate(897,345) scale(0.69,0.69)"><g transform="" style="fill: rgb(0, 0, 0);">
<rect width="100" height="100"/>
</g></g><g transform="translate(1035,345) scale(0.69,0.69)"><g transform="" style="fill: rgb(0, 0, 0);">
<rect width="100" height="100"/>
</g></g><g transform="translate(1104,345) scale(0.69,0.69)"><g transform="" style="fill: rgb(0, 0, 0);">
<rect width="100" height="100"/>
</g></g><g transform="translate(1242,345) scale(0.69,0.69)"><g transform="" style="fill: rgb(0, 0, 0);">
<rect width="100" height="100"/>
</g></g><g transform="translate(1311,345) scale(0.69,0.69)"><g transform="" style="fill: rgb(0, 0, 0);">
<rect width="100" height="100"/>
</g></g><g transform="translate(552,414) scale(0.69,0.69)"><g transform="" style="fill: rgb(0, 0, 0);">
<rect width="100" height="100"/>
</g></g><g transform="translate(690,414) scale(0.69,0.69)"><g transform="" style="fill: rgb(0, 0, 0);">
<rect width="100" height="100"/>
</g></g><g transform="translate(828,414) scale(0.69,0.69)"><g transform="" style="fill: rgb(0, 0, 0);">
<rect width="100" height="100"/>
</g></g><g transform="translate(966,414) scale(0.69,0.69)"><g transform="" style="fill: rgb(0, 0, 0);">
<rect width="100" height="100"/>
</g></g><g transform="translate(1104,414) scale(0.69,0.69)"><g transform="" style="fill: rgb(0, 0, 0);">
<rect width="100" height="100"/>
</g></g><g transform="translate(1242,414) scale(0.69,0.69)"><g transform="" style="fill: rgb(0, 0, 0);">
<rect width="100" height="100"/>
</g></g><g transform="translate(1380,414) scale(0.69,0.69)"><g transform="" style="fill: rgb(0, 0, 0);">
<rect width="100" height="100"/>
</g></g><g transform="translate(552,483) scale(0.69,0.69)"><g transform="" style="fill: rgb(0, 0, 0);">
<rect width="100" height="100"/>
</g></g><g transform="translate(621,483) scale(0.69,0.69)"><g transform="" style="fill: rgb(0, 0, 0);">
<rect width="100" height="100"/>
</g></g><g transform="translate(1035,483) scale(0.69,0.69)"><g transform="" style="fill: rgb(0, 0, 0);">
<rect width="100" height="100"/>
</g></g><g transform="translate(1104,483) scale(0.69,0.69)"><g transform="" style="fill: rgb(0, 0, 0);">
<rect width="100" height="100"/>
</g></g><g transform="translate(1173,483) scale(0.69,0.69)"><g transform="" style="fill: rgb(0, 0, 0);">
<rect width="100" height="100"/>
</g></g><g transform="translate(1311,483) scale(0.69,0.69)"><g transform="" style="fill: rgb(0, 0, 0);">
<rect width="100" height="100"/>
</g></g><g transform="translate(1380,483) scale(0.69,0.69)"><g transform="" style="fill: rgb(0, 0, 0);">
<rect width="100" height="100"/>
</g></g><g transform="translate(0,552) scale(0.69,0.69)"><g transform="" style="fill: rgb(0, 0, 0);">
<rect width="100" height="100"/>
</g></g><g transform="translate(138,552) scale(0.69,0.69)"><g transform="" style="fill: rgb(0, 0, 0);">
<rect width="100" height="100"/>
</g></g><g transform="translate(207,552) scale(0.69,0.69)"><g transform="" style="fill: rgb(0, 0, 0);">
<rect width="100" height="100"/>
</g></g><g transform="translate(345,552) scale(0.69,0.69)"><g transform="" style="fill: rgb(0, 0, 0);">
<rect width="100" height="100"/>
</g></g><g transform="translate(414,552) scale(0.69,0.69)"><g transform="" style="fill: rgb(0, 0, 0);">
<rect width="100" height="100"/>
</g></g><g transform="translate(483,552) scale(0.69,0.69)"><g transform="" style="fill: rgb(0, 0, 0);">
<rect width="100" height="100"/>
</g></g><g transform="translate(621,552) scale(0.69,0.69)"><g transform="" style="fill: rgb(0, 0, 0);">
<rect width="100" height="100"/>
</g></g><g transform="translate(828,552) scale(0.69,0.69)"><g transform="" style="fill: rgb(0, 0, 0);">
<rect width="100" height="100"/>
</g></g><g transform="translate(897,552) scale(0.69,0.69)"><g transform="" style="fill: rgb(0, 0, 0);">
<rect width="100" height="100"/>
</g></g><g transform="translate(1035,552) scale(0.69,0.69)"><g transform="" style="fill: rgb(0, 0, 0);">
<rect width="100" height="100"/>
</g></g><g transform="translate(1173,552) scale(0.69,0.69)"><g transform="" style="fill: rgb(0, 0, 0);">
<rect width="100" height="100"/>
</g></g><g transform="translate(1311,552) scale(0.69,0.69)"><g transform="" style="fill: rgb(0, 0, 0);">
<rect width="100" height="100"/>
</g></g><g transform="translate(1380,552) scale(0.69,0.69)"><g transform="" style="fill: rgb(0, 0, 0);">
<rect width="100" height="100"/>
</g></g><g transform="translate(1518,552) scale(0.69,0.69)"><g transform="" style="fill: rgb(0, 0, 0);">
<rect width="100" height="100"/>
</g></g><g transform="translate(1725,552) scale(0.69,0.69)"><g transform="" style="fill: rgb(0, 0, 0);">
<rect width="100" height="100"/>
</g></g><g transform="translate(1863,552) scale(0.69,0.69)"><g transform="" style="fill: rgb(0, 0, 0);">
<rect width="100" height="100"/>
</g></g><g transform="translate(1932,552) scale(0.69,0.69)"><g transform="" style="fill: rgb(0, 0, 0);">
<rect width="100" height="100"/>
</g></g><g transform="translate(138,621) scale(0.69,0.69)"><g transform="" style="fill: rgb(0, 0, 0);">
<rect width="100" height="100"/>
</g></g><g transform="translate(276,621) scale(0.69,0.69)"><g transform="" style="fill: rgb(0, 0, 0);">
<rect width="100" height="100"/>
</g></g><g transform="translate(345,621) scale(0.69,0.69)"><g transform="" style="fill: rgb(0, 0, 0);">
<rect width="100" height="100"/>
</g></g><g transform="translate(621,621) scale(0.69,0.69)"><g transform="" style="fill: rgb(0, 0, 0);">
<rect width="100" height="100"/>
</g></g><g transform="translate(690,621) scale(0.69,0.69)"><g transform="" style="fill: rgb(0, 0, 0);">
<rect width="100" height="100"/>
</g></g><g transform="translate(759,621) scale(0.69,0.69)"><g transform="" style="fill: rgb(0, 0, 0);">
<rect width="100" height="100"/>
</g></g><g transform="translate(897,621) scale(0.69,0.69)"><g transform="" style="fill: rgb(0, 0, 0);">
<rect width="100" height="100"/>
</g></g><g transform="translate(966,621) scale(0.69,0.69)"><g transform="" style="fill: rgb(0, 0, 0);">
<rect width="100" height="100"/>
</g></g><g transform="translate(1035,621) scale(0.69,0.69)"><g transform="" style="fill: rgb(0, 0, 0);">
<rect width="100" height="100"/>
</g></g><g transform="translate(1173,621) scale(0.69,0.69)"><g transform="" style="fill: rgb(0, 0, 0);">
<rect width="100" height="100"/>
</g></g><g transform="translate(1242,621) scale(0.69,0.69)"><g transform="" style="fill: rgb(0, 0, 0);">
<rect width="100" height="100"/>
</g></g><g transform="translate(1311,621) scale(0.69,0.69)"><g transform="" style="fill: rgb(0, 0, 0);">
<rect width="100" height="100"/>
</g></g><g transform="translate(1380,621) scale(0.69,0.69)"><g transform="" style="fill: rgb(0, 0, 0);">
<rect width="100" height="100"/>
</g></g><g transform="translate(1449,621) scale(0.69,0.69)"><g transform="" style="fill: rgb(0, 0, 0);">
<rect width="100" height="100"/>
</g></g><g transform="translate(1518,621) scale(0.69,0.69)"><g transform="" style="fill: rgb(0, 0, 0);">
<rect width="100" height="100"/>
</g></g><g transform="translate(1587,621) scale(0.69,0.69)"><g transform="" style="fill: rgb(0, 0, 0);">
<rect width="100" height="100"/>
</g></g><g transform="translate(1656,621) scale(0.69,0.69)"><g transform="" style="fill: rgb(0, 0, 0);">
<rect width="100" height="100"/>
</g></g><g transform="translate(1932,621) scale(0.69,0.69)"><g transform="" style="fill: rgb(0, 0, 0);">
<rect width="100" height="100"/>
</g></g><g transform="translate(0,690) scale(0.69,0.69)"><g transform="" style="fill: rgb(0, 0, 0);">
<rect width="100" height="100"/>
</g></g><g transform="translate(207,690) scale(0.69,0.69)"><g transform="" style="fill: rgb(0, 0, 0);">
<rect width="100" height="100"/>
</g></g><g transform="translate(276,690) scale(0.69,0.69)"><g transform="" style="fill: rgb(0, 0, 0);">
<rect width="100" height="100"/>
</g></g><g transform="translate(345,690) scale(0.69,0.69)"><g transform="" style="fill: rgb(0, 0, 0);">
<rect width="100" height="100"/>
</g></g><g transform="translate(414,690) scale(0.69,0.69)"><g transform="" style="fill: rgb(0, 0, 0);">
<rect width="100" height="100"/>
</g></g><g transform="translate(759,690) scale(0.69,0.69)"><g transform="" style="fill: rgb(0, 0, 0);">
<rect width="100" height="100"/>
</g></g><g transform="translate(828,690) scale(0.69,0.69)"><g transform="" style="fill: rgb(0, 0, 0);">
<rect width="100" height="100"/>
</g></g><g transform="translate(897,690) scale(0.69,0.69)"><g transform="" style="fill: rgb(0, 0, 0);">
<rect width="100" height="100"/>
</g></g><g transform="translate(1104,690) scale(0.69,0.69)"><g transform="" style="fill: rgb(0, 0, 0);">
<rect width="100" height="100"/>
</g></g><g transform="translate(1242,690) scale(0.69,0.69)"><g transform="" style="fill: rgb(0, 0, 0);">
<rect width="100" height="100"/>
</g></g><g transform="translate(1518,690) scale(0.69,0.69)"><g transform="" style="fill: rgb(0, 0, 0);">
<rect width="100" height="100"/>
</g></g><g transform="translate(1656,690) scale(0.69,0.69)"><g transform="" style="fill: rgb(0, 0, 0);">
<rect width="100" height="100"/>
</g></g><g transform="translate(1794,690) scale(0.69,0.69)"><g transform="" style="fill: rgb(0, 0, 0);">
<rect width="100" height="100"/>
</g></g><g transform="translate(1863,690) scale(0.69,0.69)"><g transform="" style="fill: rgb(0, 0, 0);">
<rect width="100" height="100"/>
</g></g><g transform="translate(138,759) scale(0.69,0.69)"><g transform="" style="fill: rgb(0, 0, 0);">
<rect width="100" height="100"/>
</g></g><g transform="translate(276,759) scale(0.69,0.69)"><g transform="" style="fill: rgb(0, 0, 0);">
<rect width="100" height="100"/>
</g></g><g transform="translate(483,759) scale(0.69,0.69)"><g transform="" style="fill: rgb(0, 0, 0);">
<rect width="100" height="100"/>
</g></g><g transform="translate(552,759) scale(0.69,0.69)"><g transform="" style="fill: rgb(0, 0, 0);">
<rect width="100" height="100"/>
</g></g><g transform="translate(828,759) scale(0.69,0.69)"><g transform="" style="fill: rgb(0, 0, 0);">
<rect width="100" height="100"/>
</g></g><g transform="translate(1104,759) scale(0.69,0.69)"><g transform="" style="fill: rgb(0, 0, 0);">
<rect width="100" height="100"/>
</g></g><g transform="translate(1311,759) scale(0.69,0.69)"><g transform="" style="fill: rgb(0, 0, 0);">
<rect width="100" height="100"/>
</g></g><g transform="translate(1380,759) scale(0.69,0.69)"><g transform="" style="fill: rgb(0, 0, 0);">
<rect width="100" height="100"/>
</g></g><g transform="translate(1449,759) scale(0.69,0.69)"><g transform="" style="fill: rgb(0, 0, 0);">
<rect width="100" height="100"/>
</g></g><g transform="translate(1518,759) scale(0.69,0.69)"><g transform="" style="fill: rgb(0, 0, 0);">
<rect width="100" height="100"/>
</g></g><g transform="translate(1932,759) scale(0.69,0.69)"><g transform="" style="fill: rgb(0, 0, 0);">
<rect width="100" height="100"/>
</g></g><g transform="translate(0,828) scale(0.69,0.69)"><g transform="" style="fill: rgb(0, 0, 0);">
<rect width="100" height="100"/>
</g></g><g transform="translate(138,828) scale(0.69,0.69)"><g transform="" style="fill: rgb(0, 0, 0);">
<rect width="100" height="100"/>
</g></g><g transform="translate(345,828) scale(0.69,0.69)"><g transform="" style="fill: rgb(0, 0, 0);">
<rect width="100" height="100"/>
</g></g><g transform="translate(414,828) scale(0.69,0.69)"><g transform="" style="fill: rgb(0, 0, 0);">
<rect width="100" height="100"/>
</g></g><g transform="translate(552,828) scale(0.69,0.69)"><g transform="" style="fill: rgb(0, 0, 0);">
<rect width="100" height="100"/>
</g></g><g transform="translate(690,828) scale(0.69,0.69)"><g transform="" style="fill: rgb(0, 0, 0);">
<rect width="100" height="100"/>
</g></g><g transform="translate(759,828) scale(0.69,0.69)"><g transform="" style="fill: rgb(0, 0, 0);">
<rect width="100" height="100"/>
</g></g><g transform="translate(966,828) scale(0.69,0.69)"><g transform="" style="fill: rgb(0, 0, 0);">
<rect width="100" height="100"/>
</g></g><g transform="translate(1035,828) scale(0.69,0.69)"><g transform="" style="fill: rgb(0, 0, 0);">
<rect width="100" height="100"/>
</g></g><g transform="translate(1173,828) scale(0.69,0.69)"><g transform="" style="fill: rgb(0, 0, 0);">
<rect width="100" height="100"/>
</g></g><g transform="translate(1587,828) scale(0.69,0.69)"><g transform="" style="fill: rgb(0, 0, 0);">
<rect width="100" height="100"/>
</g></g><g transform="translate(1725,828) scale(0.69,0.69)"><g transform="" style="fill: rgb(0, 0, 0);">
<rect width="100" height="100"/>
</g></g><g transform="translate(1794,828) scale(0.69,0.69)"><g transform="" style="fill: rgb(0, 0, 0);">
<rect width="100" height="100"/>
</g></g><g transform="translate(138,897) scale(0.69,0.69)"><g transform="" style="fill: rgb(0, 0, 0);">
<rect width="100" height="100"/>
</g></g><g transform="translate(207,897) scale(0.69,0.69)"><g transform="" style="fill: rgb(0, 0, 0);">
<rect width="100" height="100"/>
</g></g><g transform="translate(483,897) scale(0.69,0.69)"><g transform="" style="fill: rgb(0, 0, 0);">
<rect width="100" height="100"/>
</g></g><g transform="translate(552,897) scale(0.69,0.69)"><g transform="" style="fill: rgb(0, 0, 0);">
<rect width="100" height="100"/>
</g></g><g transform="translate(621,897) scale(0.69,0.69)"><g transform="" style="fill: rgb(0, 0, 0);">
<rect width="100" height="100"/>
</g></g><g transform="translate(759,897) scale(0.69,0.69)"><g transform="" style="fill: rgb(0, 0, 0);">
<rect width="100" height="100"/>
</g></g><g transform="translate(966,897) scale(0.69,0.69)"><g transform="" style="fill: rgb(0, 0, 0);">
<rect width="100" height="100"/>
</g></g><g transform="translate(1104,897) scale(0.69,0.69)"><g transform="" style="fill: rgb(0, 0, 0);">
<rect width="100" height="100"/>
</g></g><g transform="translate(1173,897) scale(0.69,0.69)"><g transform="" style="fill: rgb(0, 0, 0);">
<rect width="100" height="100"/>
</g></g><g transform="translate(1311,897) scale(0.69,0.69)"><g transform="" style="fill: rgb(0, 0, 0);">
<rect width="100" height="100"/>
</g></g><g transform="translate(1518,897) scale(0.69,0.69)"><g transform="" style="fill: rgb(0, 0, 0);">
<rect width="100" height="100"/>
</g></g><g transform="translate(1794,897) scale(0.69,0.69)"><g transform="" style="fill: rgb(0, 0, 0);">
<rect width="100" height="100"/>
</g></g><g transform="translate(1863,897) scale(0.69,0.69)"><g transform="" style="fill: rgb(0, 0, 0);">
<rect width="100" height="100"/>
</g></g><g transform="translate(1932,897) scale(0.69,0.69)"><g transform="" style="fill: rgb(0, 0, 0);">
<rect width="100" height="100"/>
</g></g><g transform="translate(69,966) scale(0.69,0.69)"><g transform="" style="fill: rgb(0, 0, 0);">
<rect width="100" height="100"/>
</g></g><g transform="translate(207,966) scale(0.69,0.69)"><g transform="" style="fill: rgb(0, 0, 0);">
<rect width="100" height="100"/>
</g></g><g transform="translate(345,966) scale(0.69,0.69)"><g transform="" style="fill: rgb(0, 0, 0);">
<rect width="100" height="100"/>
</g></g><g transform="translate(414,966) scale(0.69,0.69)"><g transform="" style="fill: rgb(0, 0, 0);">
<rect width="100" height="100"/>
</g></g><g transform="translate(483,966) scale(0.69,0.69)"><g transform="" style="fill: rgb(0, 0, 0);">
<rect width="100" height="100"/>
</g></g><g transform="translate(552,966) scale(0.69,0.69)"><g transform="" style="fill: rgb(0, 0, 0);">
<rect width="100" height="100"/>
</g></g><g transform="translate(828,966) scale(0.69,0.69)"><g transform="" style="fill: rgb(0, 0, 0);">
<rect width="100" height="100"/>
</g></g><g transform="translate(897,966) scale(0.69,0.69)"><g transform="" style="fill: rgb(0, 0, 0);">
<rect width="100" height="100"/>
</g></g><g transform="translate(1035,966) scale(0.69,0.69)"><g transform="" style="fill: rgb(0, 0, 0);">
<rect width="100" height="100"/>
</g></g><g transform="translate(1104,966) scale(0.69,0.69)"><g transform="" style="fill: rgb(0, 0, 0);">
<rect width="100" height="100"/>
</g></g><g transform="translate(1311,966) scale(0.69,0.69)"><g transform="" style="fill: rgb(0, 0, 0);">
<rect width="100" height="100"/>
</g></g><g transform="translate(1449,966) scale(0.69,0.69)"><g transform="" style="fill: rgb(0, 0, 0);">
<rect width="100" height="100"/>
</g></g><g transform="translate(1518,966) scale(0.69,0.69)"><g transform="" style="fill: rgb(0, 0, 0);">
<rect width="100" height="100"/>
</g></g><g transform="translate(1656,966) scale(0.69,0.69)"><g transform="" style="fill: rgb(0, 0, 0);">
<rect width="100" height="100"/>
</g></g><g transform="translate(1794,966) scale(0.69,0.69)"><g transform="" style="fill: rgb(0, 0, 0);">
<rect width="100" height="100"/>
</g></g><g transform="translate(1863,966) scale(0.69,0.69)"><g transform="" style="fill: rgb(0, 0, 0);">
<rect width="100" height="100"/>
</g></g><g transform="translate(1932,966) scale(0.69,0.69)"><g transform="" style="fill: rgb(0, 0, 0);">
<rect width="100" height="100"/>
</g></g><g transform="translate(69,1035) scale(0.69,0.69)"><g transform="" style="fill: rgb(0, 0, 0);">
<rect width="100" height="100"/>
</g></g><g transform="translate(207,1035) scale(0.69,0.69)"><g transform="" style="fill: rgb(0, 0, 0);">
<rect width="100" height="100"/>
</g></g><g transform="translate(276,1035) scale(0.69,0.69)"><g transform="" style="fill: rgb(0, 0, 0);">
<rect width="100" height="100"/>
</g></g><g transform="translate(345,1035) scale(0.69,0.69)"><g transform="" style="fill: rgb(0, 0, 0);">
<rect width="100" height="100"/>
</g></g><g transform="translate(552,1035) scale(0.69,0.69)"><g transform="" style="fill: rgb(0, 0, 0);">
<rect width="100" height="100"/>
</g></g><g transform="translate(690,1035) scale(0.69,0.69)"><g transform="" style="fill: rgb(0, 0, 0);">
<rect width="100" height="100"/>
</g></g><g transform="translate(759,1035) scale(0.69,0.69)"><g transform="" style="fill: rgb(0, 0, 0);">
<rect width="100" height="100"/>
</g></g><g transform="translate(828,1035) scale(0.69,0.69)"><g transform="" style="fill: rgb(0, 0, 0);">
<rect width="100" height="100"/>
</g></g><g transform="translate(966,1035) scale(0.69,0.69)"><g transform="" style="fill: rgb(0, 0, 0);">
<rect width="100" height="100"/>
</g></g><g transform="translate(1104,1035) scale(0.69,0.69)"><g transform="" style="fill: rgb(0, 0, 0);">
<rect width="100" height="100"/>
</g></g><g transform="translate(1311,1035) scale(0.69,0.69)"><g transform="" style="fill: rgb(0, 0, 0);">
<rect width="100" height="100"/>
</g></g><g transform="translate(1380,1035) scale(0.69,0.69)"><g transform="" style="fill: rgb(0, 0, 0);">
<rect width="100" height="100"/>
</g></g><g transform="translate(1518,1035) scale(0.69,0.69)"><g transform="" style="fill: rgb(0, 0, 0);">
<rect width="100" height="100"/>
</g></g><g transform="translate(1587,1035) scale(0.69,0.69)"><g transform="" style="fill: rgb(0, 0, 0);">
<rect width="100" height="100"/>
</g></g><g transform="translate(1863,1035) scale(0.69,0.69)"><g transform="" style="fill: rgb(0, 0, 0);">
<rect width="100" height="100"/>
</g></g><g transform="translate(0,1104) scale(0.69,0.69)"><g transform="" style="fill: rgb(0, 0, 0);">
<rect width="100" height="100"/>
</g></g><g transform="translate(138,1104) scale(0.69,0.69)"><g transform="" style="fill: rgb(0, 0, 0);">
<rect width="100" height="100"/>
</g></g><g transform="translate(207,1104) scale(0.69,0.69)"><g transform="" style="fill: rgb(0, 0, 0);">
<rect width="100" height="100"/>
</g></g><g transform="translate(345,1104) scale(0.69,0.69)"><g transform="" style="fill: rgb(0, 0, 0);">
<rect width="100" height="100"/>
</g></g><g transform="translate(414,1104) scale(0.69,0.69)"><g transform="" style="fill: rgb(0, 0, 0);">
<rect width="100" height="100"/>
</g></g><g transform="translate(552,1104) scale(0.69,0.69)"><g transform="" style="fill: rgb(0, 0, 0);">
<rect width="100" height="100"/>
</g></g><g transform="translate(690,1104) scale(0.69,0.69)"><g transform="" style="fill: rgb(0, 0, 0);">
<rect width="100" height="100"/>
</g></g><g transform="translate(759,1104) scale(0.69,0.69)"><g transform="" style="fill: rgb(0, 0, 0);">
<rect width="100" height="100"/>
</g></g><g transform="translate(966,1104) scale(0.69,0.69)"><g transform="" style="fill: rgb(0, 0, 0);">
<rect width="100" height="100"/>
</g></g><g transform="translate(1035,1104) scale(0.69,0.69)"><g transform="" style="fill: rgb(0, 0, 0);">
<rect width="100" height="100"/>
</g></g><g transform="translate(1104,1104) scale(0.69,0.69)"><g transform="" style="fill: rgb(0, 0, 0);">
<rect width="100" height="100"/>
</g></g><g transform="translate(1242,1104) scale(0.69,0.69)"><g transform="" style="fill: rgb(0, 0, 0);">
<rect width="100" height="100"/>
</g></g><g transform="translate(1449,1104) scale(0.69,0.69)"><g transform="" style="fill: rgb(0, 0, 0);">
<rect width="100" height="100"/>
</g></g><g transform="translate(1587,1104) scale(0.69,0.69)"><g transform="" style="fill: rgb(0, 0, 0);">
<rect width="100" height="100"/>
</g></g><g transform="translate(1656,1104) scale(0.69,0.69)"><g transform="" style="fill: rgb(0, 0, 0);">
<rect width="100" height="100"/>
</g></g><g transform="translate(1725,1104) scale(0.69,0.69)"><g transform="" style="fill: rgb(0, 0, 0);">
<rect width="100" height="100"/>
</g></g><g transform="translate(1863,1104) scale(0.69,0.69)"><g transform="" style="fill: rgb(0, 0, 0);">
<rect width="100" height="100"/>
</g></g><g transform="translate(207,1173) scale(0.69,0.69)"><g transform="" style="fill: rgb(0, 0, 0);">
<rect width="100" height="100"/>
</g></g><g transform="translate(483,1173) scale(0.69,0.69)"><g transform="" style="fill: rgb(0, 0, 0);">
<rect width="100" height="100"/>
</g></g><g transform="translate(552,1173) scale(0.69,0.69)"><g transform="" style="fill: rgb(0, 0, 0);">
<rect width="100" height="100"/>
</g></g><g transform="translate(690,1173) scale(0.69,0.69)"><g transform="" style="fill: rgb(0, 0, 0);">
<rect width="100" height="100"/>
</g></g><g transform="translate(759,1173) scale(0.69,0.69)"><g transform="" style="fill: rgb(0, 0, 0);">
<rect width="100" height="100"/>
</g></g><g transform="translate(966,1173) scale(0.69,0.69)"><g transform="" style="fill: rgb(0, 0, 0);">
<rect width="100" height="100"/>
</g></g><g transform="translate(1104,1173) scale(0.69,0.69)"><g transform="" style="fill: rgb(0, 0, 0);">
<rect width="100" height="100"/>
</g></g><g transform="translate(1242,1173) scale(0.69,0.69)"><g transform="" style="fill: rgb(0, 0, 0);">
<rect width="100" height="100"/>
</g></g><g transform="translate(1380,1173) scale(0.69,0.69)"><g transform="" style="fill: rgb(0, 0, 0);">
<rect width="100" height="100"/>
</g></g><g transform="translate(1587,1173) scale(0.69,0.69)"><g transform="" style="fill: rgb(0, 0, 0);">
<rect width="100" height="100"/>
</g></g><g transform="translate(1725,1173) scale(0.69,0.69)"><g transform="" style="fill: rgb(0, 0, 0);">
<rect width="100" height="100"/>
</g></g><g transform="translate(1794,1173) scale(0.69,0.69)"><g transform="" style="fill: rgb(0, 0, 0);">
<rect width="100" height="100"/>
</g></g><g transform="translate(1863,1173) scale(0.69,0.69)"><g transform="" style="fill: rgb(0, 0, 0);">
<rect width="100" height="100"/>
</g></g><g transform="translate(0,1242) scale(0.69,0.69)"><g transform="" style="fill: rgb(0, 0, 0);">
<rect width="100" height="100"/>
</g></g><g transform="translate(414,1242) scale(0.69,0.69)"><g transform="" style="fill: rgb(0, 0, 0);">
<rect width="100" height="100"/>
</g></g><g transform="translate(483,1242) scale(0.69,0.69)"><g transform="" style="fill: rgb(0, 0, 0);">
<rect width="100" height="100"/>
</g></g><g transform="translate(552,1242) scale(0.69,0.69)"><g transform="" style="fill: rgb(0, 0, 0);">
<rect width="100" height="100"/>
</g></g><g transform="translate(621,1242) scale(0.69,0.69)"><g transform="" style="fill: rgb(0, 0, 0);">
<rect width="100" height="100"/>
</g></g><g transform="translate(759,1242) scale(0.69,0.69)"><g transform="" style="fill: rgb(0, 0, 0);">
<rect width="100" height="100"/>
</g></g><g transform="translate(897,1242) scale(0.69,0.69)"><g transform="" style="fill: rgb(0, 0, 0);">
<rect width="100" height="100"/>
</g></g><g transform="translate(966,1242) scale(0.69,0.69)"><g transform="" style="fill: rgb(0, 0, 0);">
<rect width="100" height="100"/>
</g></g><g transform="translate(1035,1242) scale(0.69,0.69)"><g transform="" style="fill: rgb(0, 0, 0);">
<rect width="100" height="100"/>
</g></g><g transform="translate(1104,1242) scale(0.69,0.69)"><g transform="" style="fill: rgb(0, 0, 0);">
<rect width="100" height="100"/>
</g></g><g transform="translate(1242,1242) scale(0.69,0.69)"><g transform="" style="fill: rgb(0, 0, 0);">
<rect width="100" height="100"/>
</g></g><g transform="translate(1449,1242) scale(0.69,0.69)"><g transform="" style="fill: rgb(0, 0, 0);">
<rect width="100" height="100"/>
</g></g><g transform="translate(1518,1242) scale(0.69,0.69)"><g transform="" style="fill: rgb(0, 0, 0);">
<rect width="100" height="100"/>
</g></g><g transform="translate(1587,1242) scale(0.69,0.69)"><g transform="" style="fill: rgb(0, 0, 0);">
<rect width="100" height="100"/>
</g></g><g transform="translate(1656,1242) scale(0.69,0.69)"><g transform="" style="fill: rgb(0, 0, 0);">
<rect width="100" height="100"/>
</g></g><g transform="translate(1794,1242) scale(0.69,0.69)"><g transform="" style="fill: rgb(0, 0, 0);">
<rect width="100" height="100"/>
</g></g><g transform="translate(138,1311) scale(0.69,0.69)"><g transform="" style="fill: rgb(0, 0, 0);">
<rect width="100" height="100"/>
</g></g><g transform="translate(207,1311) scale(0.69,0.69)"><g transform="" style="fill: rgb(0, 0, 0);">
<rect width="100" height="100"/>
</g></g><g transform="translate(276,1311) scale(0.69,0.69)"><g transform="" style="fill: rgb(0, 0, 0);">
<rect width="100" height="100"/>
</g></g><g transform="translate(345,1311) scale(0.69,0.69)"><g transform="" style="fill: rgb(0, 0, 0);">
<rect width="100" height="100"/>
</g></g><g transform="translate(552,1311) scale(0.69,0.69)"><g transform="" style="fill: rgb(0, 0, 0);">
<rect width="100" height="100"/>
</g></g><g transform="translate(621,1311) scale(0.69,0.69)"><g transform="" style="fill: rgb(0, 0, 0);">
<rect width="100" height="100"/>
</g></g><g transform="translate(897,1311) scale(0.69,0.69)"><g transform="" style="fill: rgb(0, 0, 0);">
<rect width="100" height="100"/>
</g></g><g transform="translate(966,1311) scale(0.69,0.69)"><g transform="" style="fill: rgb(0, 0, 0);">
<rect width="100" height="100"/>
</g></g><g transform="translate(1173,1311) scale(0.69,0.69)"><g transform="" style="fill: rgb(0, 0, 0);">
<rect width="100" height="100"/>
</g></g><g transform="translate(1311,1311) scale(0.69,0.69)"><g transform="" style="fill: rgb(0, 0, 0);">
<rect width="100" height="100"/>
</g></g><g transform="translate(1587,1311) scale(0.69,0.69)"><g transform="" style="fill: rgb(0, 0, 0);">
<rect width="100" height="100"/>
</g></g><g transform="translate(1656,1311) scale(0.69,0.69)"><g transform="" style="fill: rgb(0, 0, 0);">
<rect width="100" height="100"/>
</g></g><g transform="translate(1794,1311) scale(0.69,0.69)"><g transform="" style="fill: rgb(0, 0, 0);">
<rect width="100" height="100"/>
</g></g><g transform="translate(69,1380) scale(0.69,0.69)"><g transform="" style="fill: rgb(0, 0, 0);">
<rect width="100" height="100"/>
</g></g><g transform="translate(414,1380) scale(0.69,0.69)"><g transform="" style="fill: rgb(0, 0, 0);">
<rect width="100" height="100"/>
</g></g><g transform="translate(621,1380) scale(0.69,0.69)"><g transform="" style="fill: rgb(0, 0, 0);">
<rect width="100" height="100"/>
</g></g><g transform="translate(828,1380) scale(0.69,0.69)"><g transform="" style="fill: rgb(0, 0, 0);">
<rect width="100" height="100"/>
</g></g><g transform="translate(897,1380) scale(0.69,0.69)"><g transform="" style="fill: rgb(0, 0, 0);">
<rect width="100" height="100"/>
</g></g><g transform="translate(966,1380) scale(0.69,0.69)"><g transform="" style="fill: rgb(0, 0, 0);">
<rect width="100" height="100"/>
</g></g><g transform="translate(1104,1380) scale(0.69,0.69)"><g transform="" style="fill: rgb(0, 0, 0);">
<rect width="100" height="100"/>
</g></g><g transform="translate(1173,1380) scale(0.69,0.69)"><g transform="" style="fill: rgb(0, 0, 0);">
<rect width="100" height="100"/>
</g></g><g transform="translate(1242,1380) scale(0.69,0.69)"><g transform="" style="fill: rgb(0, 0, 0);">
<rect width="100" height="100"/>
</g></g><g transform="translate(1380,1380) scale(0.69,0.69)"><g transform="" style="fill: rgb(0, 0, 0);">
<rect width="100" height="100"/>
</g></g><g transform="translate(1449,1380) scale(0.69,0.69)"><g transform="" style="fill: rgb(0, 0, 0);">
<rect width="100" height="100"/>
</g></g><g transform="translate(1518,1380) scale(0.69,0.69)"><g transform="" style="fill: rgb(0, 0, 0);">
<rect width="100" height="100"/>
</g></g><g transform="translate(1587,1380) scale(0.69,0.69)"><g transform="" style="fill: rgb(0, 0, 0);">
<rect width="100" height="100"/>
</g></g><g transform="translate(1656,1380) scale(0.69,0.69)"><g transform="" style="fill: rgb(0, 0, 0);">
<rect width="100" height="100"/>
</g></g><g transform="translate(1725,1380) scale(0.69,0.69)"><g transform="" style="fill: rgb(0, 0, 0);">
<rect width="100" height="100"/>
</g></g><g transform="translate(1794,1380) scale(0.69,0.69)"><g transform="" style="fill: rgb(0, 0, 0);">
<rect width="100" height="100"/>
</g></g><g transform="translate(552,1449) scale(0.69,0.69)"><g transform="" style="fill: rgb(0, 0, 0);">
<rect width="100" height="100"/>
</g></g><g transform="translate(690,1449) scale(0.69,0.69)"><g transform="" style="fill: rgb(0, 0, 0);">
<rect width="100" height="100"/>
</g></g><g transform="translate(1035,1449) scale(0.69,0.69)"><g transform="" style="fill: rgb(0, 0, 0);">
<rect width="100" height="100"/>
</g></g><g transform="translate(1104,1449) scale(0.69,0.69)"><g transform="" style="fill: rgb(0, 0, 0);">
<rect width="100" height="100"/>
</g></g><g transform="translate(1380,1449) scale(0.69,0.69)"><g transform="" style="fill: rgb(0, 0, 0);">
<rect width="100" height="100"/>
</g></g><g transform="translate(1656,1449) scale(0.69,0.69)"><g transform="" style="fill: rgb(0, 0, 0);">
<rect width="100" height="100"/>
</g></g><g transform="translate(1725,1449) scale(0.69,0.69)"><g transform="" style="fill: rgb(0, 0, 0);">
<rect width="100" height="100"/>
</g></g><g transform="translate(1794,1449) scale(0.69,0.69)"><g transform="" style="fill: rgb(0, 0, 0);">
<rect width="100" height="100"/>
</g></g><g transform="translate(1863,1449) scale(0.69,0.69)"><g transform="" style="fill: rgb(0, 0, 0);">
<rect width="100" height="100"/>
</g></g><g transform="translate(1932,1449) scale(0.69,0.69)"><g transform="" style="fill: rgb(0, 0, 0);">
<rect width="100" height="100"/>
</g></g><g transform="translate(552,1518) scale(0.69,0.69)"><g transform="" style="fill: rgb(0, 0, 0);">
<rect width="100" height="100"/>
</g></g><g transform="translate(966,1518) scale(0.69,0.69)"><g transform="" style="fill: rgb(0, 0, 0);">
<rect width="100" height="100"/>
</g></g><g transform="translate(1035,1518) scale(0.69,0.69)"><g transform="" style="fill: rgb(0, 0, 0);">
<rect width="100" height="100"/>
</g></g><g transform="translate(1173,1518) scale(0.69,0.69)"><g transform="" style="fill: rgb(0, 0, 0);">
<rect width="100" height="100"/>
</g></g><g transform="translate(1311,1518) scale(0.69,0.69)"><g transform="" style="fill: rgb(0, 0, 0);">
<rect width="100" height="100"/>
</g></g><g transform="translate(1380,1518) scale(0.69,0.69)"><g transform="" style="fill: rgb(0, 0, 0);">
<rect width="100" height="100"/>
</g></g><g transform="translate(1518,1518) scale(0.69,0.69)"><g transform="" style="fill: rgb(0, 0, 0);">
<rect width="100" height="100"/>
</g></g><g transform="translate(1656,1518) scale(0.69,0.69)"><g transform="" style="fill: rgb(0, 0, 0);">
<rect width="100" height="100"/>
</g></g><g transform="translate(1725,1518) scale(0.69,0.69)"><g transform="" style="fill: rgb(0, 0, 0);">
<rect width="100" height="100"/>
</g></g><g transform="translate(1863,1518) scale(0.69,0.69)"><g transform="" style="fill: rgb(0, 0, 0);">
<rect width="100" height="100"/>
</g></g><g transform="translate(552,1587) scale(0.69,0.69)"><g transform="" style="fill: rgb(0, 0, 0);">
<rect width="100" height="100"/>
</g></g><g transform="translate(690,1587) scale(0.69,0.69)"><g transform="" style="fill: rgb(0, 0, 0);">
<rect width="100" height="100"/>
</g></g><g transform="translate(759,1587) scale(0.69,0.69)"><g transform="" style="fill: rgb(0, 0, 0);">
<rect width="100" height="100"/>
</g></g><g transform="translate(828,1587) scale(0.69,0.69)"><g transform="" style="fill: rgb(0, 0, 0);">
<rect width="100" height="100"/>
</g></g><g transform="translate(897,1587) scale(0.69,0.69)"><g transform="" style="fill: rgb(0, 0, 0);">
<rect width="100" height="100"/>
</g></g><g transform="translate(966,1587) scale(0.69,0.69)"><g transform="" style="fill: rgb(0, 0, 0);">
<rect width="100" height="100"/>
</g></g><g transform="translate(1035,1587) scale(0.69,0.69)"><g transform="" style="fill: rgb(0, 0, 0);">
<rect width="100" height="100"/>
</g></g><g transform="translate(1311,1587) scale(0.69,0.69)"><g transform="" style="fill: rgb(0, 0, 0);">
<rect width="100" height="100"/>
</g></g><g transform="translate(1380,1587) scale(0.69,0.69)"><g transform="" style="fill: rgb(0, 0, 0);">
<rect width="100" height="100"/>
</g></g><g transform="translate(1656,1587) scale(0.69,0.69)"><g transform="" style="fill: rgb(0, 0, 0);">
<rect width="100" height="100"/>
</g></g><g transform="translate(1725,1587) scale(0.69,0.69)"><g transform="" style="fill: rgb(0, 0, 0);">
<rect width="100" height="100"/>
</g></g><g transform="translate(1932,1587) scale(0.69,0.69)"><g transform="" style="fill: rgb(0, 0, 0);">
<rect width="100" height="100"/>
</g></g><g transform="translate(621,1656) scale(0.69,0.69)"><g transform="" style="fill: rgb(0, 0, 0);">
<rect width="100" height="100"/>
</g></g><g transform="translate(759,1656) scale(0.69,0.69)"><g transform="" style="fill: rgb(0, 0, 0);">
<rect width="100" height="100"/>
</g></g><g transform="translate(1104,1656) scale(0.69,0.69)"><g transform="" style="fill: rgb(0, 0, 0);">
<rect width="100" height="100"/>
</g></g><g transform="translate(1242,1656) scale(0.69,0.69)"><g transform="" style="fill: rgb(0, 0, 0);">
<rect width="100" height="100"/>
</g></g><g transform="translate(1380,1656) scale(0.69,0.69)"><g transform="" style="fill: rgb(0, 0, 0);">
<rect width="100" height="100"/>
</g></g><g transform="translate(1449,1656) scale(0.69,0.69)"><g transform="" style="fill: rgb(0, 0, 0);">
<rect width="100" height="100"/>
</g></g><g transform="translate(1518,1656) scale(0.69,0.69)"><g transform="" style="fill: rgb(0, 0, 0);">
<rect width="100" height="100"/>
</g></g><g transform="translate(1587,1656) scale(0.69,0.69)"><g transform="" style="fill: rgb(0, 0, 0);">
<rect width="100" height="100"/>
</g></g><g transform="translate(1656,1656) scale(0.69,0.69)"><g transform="" style="fill: rgb(0, 0, 0);">
<rect width="100" height="100"/>
</g></g><g transform="translate(1794,1656) scale(0.69,0.69)"><g transform="" style="fill: rgb(0, 0, 0);">
<rect width="100" height="100"/>
</g></g><g transform="translate(1932,1656) scale(0.69,0.69)"><g transform="" style="fill: rgb(0, 0, 0);">
<rect width="100" height="100"/>
</g></g><g transform="translate(552,1725) scale(0.69,0.69)"><g transform="" style="fill: rgb(0, 0, 0);">
<rect width="100" height="100"/>
</g></g><g transform="translate(759,1725) scale(0.69,0.69)"><g transform="" style="fill: rgb(0, 0, 0);">
<rect width="100" height="100"/>
</g></g><g transform="translate(828,1725) scale(0.69,0.69)"><g transform="" style="fill: rgb(0, 0, 0);">
<rect width="100" height="100"/>
</g></g><g transform="translate(897,1725) scale(0.69,0.69)"><g transform="" style="fill: rgb(0, 0, 0);">
<rect width="100" height="100"/>
</g></g><g transform="translate(1311,1725) scale(0.69,0.69)"><g transform="" style="fill: rgb(0, 0, 0);">
<rect width="100" height="100"/>
</g></g><g transform="translate(1449,1725) scale(0.69,0.69)"><g transform="" style="fill: rgb(0, 0, 0);">
<rect width="100" height="100"/>
</g></g><g transform="translate(1587,1725) scale(0.69,0.69)"><g transform="" style="fill: rgb(0, 0, 0);">
<rect width="100" height="100"/>
</g></g><g transform="translate(1656,1725) scale(0.69,0.69)"><g transform="" style="fill: rgb(0, 0, 0);">
<rect width="100" height="100"/>
</g></g><g transform="translate(1725,1725) scale(0.69,0.69)"><g transform="" style="fill: rgb(0, 0, 0);">
<rect width="100" height="100"/>
</g></g><g transform="translate(1863,1725) scale(0.69,0.69)"><g transform="" style="fill: rgb(0, 0, 0);">
<rect width="100" height="100"/>
</g></g><g transform="translate(552,1794) scale(0.69,0.69)"><g transform="" style="fill: rgb(0, 0, 0);">
<rect width="100" height="100"/>
</g></g><g transform="translate(690,1794) scale(0.69,0.69)"><g transform="" style="fill: rgb(0, 0, 0);">
<rect width="100" height="100"/>
</g></g><g transform="translate(828,1794) scale(0.69,0.69)"><g transform="" style="fill: rgb(0, 0, 0);">
<rect width="100" height="100"/>
</g></g><g transform="translate(966,1794) scale(0.69,0.69)"><g transform="" style="fill: rgb(0, 0, 0);">
<rect width="100" height="100"/>
</g></g><g transform="translate(1173,1794) scale(0.69,0.69)"><g transform="" style="fill: rgb(0, 0, 0);">
<rect width="100" height="100"/>
</g></g><g transform="translate(1242,1794) scale(0.69,0.69)"><g transform="" style="fill: rgb(0, 0, 0);">
<rect width="100" height="100"/>
</g></g><g transform="translate(1311,1794) scale(0.69,0.69)"><g transform="" style="fill: rgb(0, 0, 0);">
<rect width="100" height="100"/>
</g></g><g transform="translate(1449,1794) scale(0.69,0.69)"><g transform="" style="fill: rgb(0, 0, 0);">
<rect width="100" height="100"/>
</g></g><g transform="translate(1587,1794) scale(0.69,0.69)"><g transform="" style="fill: rgb(0, 0, 0);">
<rect width="100" height="100"/>
</g></g><g transform="translate(1794,1794) scale(0.69,0.69)"><g transform="" style="fill: rgb(0, 0, 0);">
<rect width="100" height="100"/>
</g></g><g transform="translate(1932,1794) scale(0.69,0.69)"><g transform="" style="fill: rgb(0, 0, 0);">
<rect width="100" height="100"/>
</g></g><g transform="translate(621,1863) scale(0.69,0.69)"><g transform="" style="fill: rgb(0, 0, 0);">
<rect width="100" height="100"/>
</g></g><g transform="translate(828,1863) scale(0.69,0.69)"><g transform="" style="fill: rgb(0, 0, 0);">
<rect width="100" height="100"/>
</g></g><g transform="translate(897,1863) scale(0.69,0.69)"><g transform="" style="fill: rgb(0, 0, 0);">
<rect width="100" height="100"/>
</g></g><g transform="translate(966,1863) scale(0.69,0.69)"><g transform="" style="fill: rgb(0, 0, 0);">
<rect width="100" height="100"/>
</g></g><g transform="translate(1035,1863) scale(0.69,0.69)"><g transform="" style="fill: rgb(0, 0, 0);">
<rect width="100" height="100"/>
</g></g><g transform="translate(1173,1863) scale(0.69,0.69)"><g transform="" style="fill: rgb(0, 0, 0);">
<rect width="100" height="100"/>
</g></g><g transform="translate(1242,1863) scale(0.69,0.69)"><g transform="" style="fill: rgb(0, 0, 0);">
<rect width="100" height="100"/>
</g></g><g transform="translate(1311,1863) scale(0.69,0.69)"><g transform="" style="fill: rgb(0, 0, 0);">
<rect width="100" height="100"/>
</g></g><g transform="translate(1380,1863) scale(0.69,0.69)"><g transform="" style="fill: rgb(0, 0, 0);">
<rect width="100" height="100"/>
</g></g><g transform="translate(1656,1863) scale(0.69,0.69)"><g transform="" style="fill: rgb(0, 0, 0);">
<rect width="100" height="100"/>
</g></g><g transform="translate(1725,1863) scale(0.69,0.69)"><g transform="" style="fill: rgb(0, 0, 0);">
<rect width="100" height="100"/>
</g></g><g transform="translate(1863,1863) scale(0.69,0.69)"><g transform="" style="fill: rgb(0, 0, 0);">
<rect width="100" height="100"/>
</g></g><g transform="translate(552,1932) scale(0.69,0.69)"><g transform="" style="fill: rgb(0, 0, 0);">
<rect width="100" height="100"/>
</g></g><g transform="translate(690,1932) scale(0.69,0.69)"><g transform="" style="fill: rgb(0, 0, 0);">
<rect width="100" height="100"/>
</g></g><g transform="translate(828,1932) scale(0.69,0.69)"><g transform="" style="fill: rgb(0, 0, 0);">
<rect width="100" height="100"/>
</g></g><g transform="translate(966,1932) scale(0.69,0.69)"><g transform="" style="fill: rgb(0, 0, 0);">
<rect width="100" height="100"/>
</g></g><g transform="translate(1173,1932) scale(0.69,0.69)"><g transform="" style="fill: rgb(0, 0, 0);">
<rect width="100" height="100"/>
</g></g><g transform="translate(1242,1932) scale(0.69,0.69)"><g transform="" style="fill: rgb(0, 0, 0);">
<rect width="100" height="100"/>
</g></g><g transform="translate(1311,1932) scale(0.69,0.69)"><g transform="" style="fill: rgb(0, 0, 0);">
<rect width="100" height="100"/>
</g></g><g transform="translate(1380,1932) scale(0.69,0.69)"><g transform="" style="fill: rgb(0, 0, 0);">
<rect width="100" height="100"/>
</g></g><g transform="translate(1725,1932) scale(0.69,0.69)"><g transform="" style="fill: rgb(0, 0, 0);">
<rect width="100" height="100"/>
</g></g><g transform="translate(1863,1932) scale(0.69,0.69)"><g transform="" style="fill: rgb(0, 0, 0);">
<rect width="100" height="100"/>
</g></g><g transform="translate(0,0) scale(4.83, 4.83)"><g transform="" style="fill: rgb(0, 0, 0);">
<g>
	<rect x="15" y="15" style="fill:none;" width="70" height="70"/>
	<path d="M85,0H15H0v15v70v15h15h70h15V85V15V0H85z M85,85H15V15h70V85z"/>
</g>
</g></g><g transform="translate(1518,0) scale(4.83, 4.83)"><g transform="" style="fill: rgb(0, 0, 0);">
<g>
	<rect x="15" y="15" style="fill:none;" width="70" height="70"/>
	<path d="M85,0H15H0v15v70v15h15h70h15V85V15V0H85z M85,85H15V15h70V85z"/>
</g>
</g></g><g transform="translate(0,1518) scale(4.83, 4.83)"><g transform="" style="fill: rgb(0, 0, 0);">
<g>
	<rect x="15" y="15" style="fill:none;" width="70" height="70"/>
	<path d="M85,0H15H0v15v70v15h15h70h15V85V15V0H85z M85,85H15V15h70V85z"/>
</g>
</g></g><g transform="translate(138,138) scale(2.07, 2.07)"><g transform=" translate(0,100) scale(1,-1) " style="fill: rgb(0, 0, 0);">
<g>
</g>
<path d="M72.744-0.021H27.23c-2.341,0-4.612,0.297-6.771,0.875C15.679,2.11,11.418,4.648,8.04,8.09
	c-0.617,0.621-1.206,1.284-1.752,1.96c-3.883,4.767-6.21,10.903-6.21,17.561L0.05,99.979h72.694
	c14.971,0,27.138-12.397,27.138-27.63V27.625v-0.014l0.168-27.617C100.05-0.006,82.107-0.021,72.744-0.021z"/>
</g></g><g transform="translate(1656,138) scale(2.07, 2.07)"><g transform="" style="fill: rgb(0, 0, 0);">
<g>
</g>
<path d="M72.744-0.021H27.23c-2.341,0-4.612,0.297-6.771,0.875C15.679,2.11,11.418,4.648,8.04,8.09
	c-0.617,0.621-1.206,1.284-1.752,1.96c-3.883,4.767-6.21,10.903-6.21,17.561L0.05,99.979h72.694
	c14.971,0,27.138-12.397,27.138-27.63V27.625v-0.014l0.168-27.617C100.05-0.006,82.107-0.021,72.744-0.021z"/>
</g></g><g transform="translate(138,1656) scale(2.07, 2.07)"><g transform="" style="fill: rgb(0, 0, 0);">
<g>
</g>
<path d="M72.744-0.021H27.23c-2.341,0-4.612,0.297-6.771,0.875C15.679,2.11,11.418,4.648,8.04,8.09
	c-0.617,0.621-1.206,1.284-1.752,1.96c-3.883,4.767-6.21,10.903-6.21,17.561L0.05,99.979h72.694
	c14.971,0,27.138-12.397,27.138-27.63V27.625v-0.014l0.168-27.617C100.05-0.006,82.107-0.021,72.744-0.021z"/>
</g></g></g></svg>